<svg width="40" height="39" viewBox="0 0 40 39" fill="none" xmlns="http://www.w3.org/2000/svg">
<path d="M0 0H40V38.5317H0V0Z" fill="#254653"/>
<path d="M32.5001 25.6877H10.8334L6.66675 9.63281H36.6667L32.5001 25.6877Z" fill="#254653"/>
<path d="M2.5 4.81641H5.41667L6.66667 9.63287M6.66667 9.63287L10.8333 25.6877H32.5L36.6667 9.63287H6.66667Z" fill="#254653"/>
<path d="M2.5 4.81641H5.41667L6.66667 9.63287M6.66667 9.63287L10.8333 25.6877H32.5L36.6667 9.63287H6.66667Z" stroke="#D9D9D9" stroke-width="3" stroke-linecap="round" stroke-linejoin="round"/>
<path d="M10.8333 33.7151C12.214 33.7151 13.3333 32.6369 13.3333 31.3069C13.3333 29.9769 12.214 28.8987 10.8333 28.8987C9.45254 28.8987 8.33325 29.9769 8.33325 31.3069C8.33325 32.6369 9.45254 33.7151 10.8333 33.7151Z" fill="#254653" stroke="#D9D9D9" stroke-width="3" stroke-linecap="round" stroke-linejoin="round"/>
<path d="M32.5 33.7151C33.8807 33.7151 35 32.6369 35 31.3069C35 29.9769 33.8807 28.8987 32.5 28.8987C31.1193 28.8987 30 29.9769 30 31.3069C30 32.6369 31.1193 33.7151 32.5 33.7151Z" fill="#254653" stroke="#D9D9D9" stroke-width="3" stroke-linecap="round" stroke-linejoin="round"/>
</svg>
