<svg width="40" height="33" viewBox="0 0 40 33" fill="none" xmlns="http://www.w3.org/2000/svg">
<path d="M0 0.245361H40V32.7545H0V0.245361Z" fill="white" fill-opacity="0.01"/>
<path d="M20.0001 13.7909C23.2217 13.7909 25.8334 11.6683 25.8334 9.05C25.8334 6.43167 23.2217 4.30908 20.0001 4.30908C16.7784 4.30908 14.1667 6.43167 14.1667 9.05C14.1667 11.6683 16.7784 13.7909 20.0001 13.7909Z" fill="#2F88FF" stroke="black" stroke-width="2" stroke-linecap="round" stroke-linejoin="round"/>
<path d="M5 27.8783V28.6911H35V27.8783C35 24.8439 35 23.3267 34.2734 22.1676C33.6342 21.1481 32.6143 20.3192 31.3599 19.7997C29.9338 19.2092 28.067 19.2092 24.3333 19.2092H15.6667C11.933 19.2092 10.0662 19.2092 8.64008 19.7997C7.38565 20.3192 6.36577 21.1481 5.72663 22.1676C5 23.3267 5 24.8439 5 27.8783Z" fill="#2F88FF" stroke="black" stroke-width="2" stroke-linecap="round" stroke-linejoin="round"/>
</svg>
