<svg width="20" height="20" viewBox="0 0 20 20" fill="none" xmlns="http://www.w3.org/2000/svg">
<path d="M19.7826 6.79348C19.9022 6.79348 20 6.69565 20 6.57609V4.94565C20 4.82609 19.9022 4.72826 19.7826 4.72826H15.3261V0.217391C15.3261 0.0978261 15.2283 0 15.1087 0H13.3696C13.25 0 13.1522 0.0978261 13.1522 0.217391V4.72826H6.95652V0.217391C6.95652 0.0978261 6.8587 0 6.73913 0H5C4.88043 0 4.78261 0.0978261 4.78261 0.217391V4.72826H0.217391C0.0978261 4.72826 0 4.82609 0 4.94565V6.57609C0 6.69565 0.0978261 6.79348 0.217391 6.79348H4.78261V13.2065H0.217391C0.0978261 13.2065 0 13.3043 0 13.4239V15.0543C0 15.1739 0.0978261 15.2717 0.217391 15.2717H4.78261V19.7826C4.78261 19.9022 4.88043 20 5 20H6.73913C6.8587 20 6.95652 19.9022 6.95652 19.7826V15.2717H13.1522V19.7826C13.1522 19.9022 13.25 20 13.3696 20H15.1087C15.2283 20 15.3261 19.9022 15.3261 19.7826V15.2717H19.7826C19.9022 15.2717 20 15.1739 20 15.0543V13.4239C20 13.3043 19.9022 13.2065 19.7826 13.2065H15.3261V6.79348H19.7826ZM13.1522 13.2065H6.95652V6.79348H13.1522V13.2065Z" fill="#D2D2D2"/>
</svg>
