<svg width="21" height="16" viewBox="0 0 21 16" fill="none" xmlns="http://www.w3.org/2000/svg">
<ellipse cx="19.8372" cy="13.6357" rx="1.16279" ry="1.00775" fill="#BCBCBC"/>
<path d="M1 14.1783H6.91085C8.86955 14.1783 10.4574 12.4926 10.4574 10.4131C10.4574 8.33358 8.86955 6.64784 6.91085 6.64784L1 6.42636" stroke="#BCBCBC" stroke-width="2" stroke-linecap="round" stroke-linejoin="round"/>
<path d="M1 1V14.1783" stroke="#BCBCBC" stroke-width="2" stroke-linecap="round" stroke-linejoin="round"/>
<path d="M12.0078 14.1783H15.7868C17.0391 14.1783 18.0543 13.3106 18.0543 12.2403C18.0543 11.17 17.0391 10.3023 15.7868 10.3023H13.7713" stroke="#BCBCBC" stroke-width="2" stroke-linecap="round" stroke-linejoin="round"/>
<path d="M1 6.42636H5.45736C6.93441 6.42636 8.13178 5.21164 8.13178 3.71318C8.13178 2.21472 6.93441 1 5.45736 1H1" stroke="#BCBCBC" stroke-width="2" stroke-linecap="round" stroke-linejoin="round"/>
<path d="M17.7442 6.42636C17.7442 6.42636 15.1526 6.42636 13.8682 6.42636C12.5838 6.42636 11.5426 7.29401 11.5426 8.36434C11.5426 9.43467 12.5838 10.3023 13.8682 10.3023" stroke="#BCBCBC" stroke-width="2" stroke-linecap="round" stroke-linejoin="round"/>
</svg>
