<svg width="40" height="40" viewBox="0 0 40 40" fill="none" xmlns="http://www.w3.org/2000/svg">
<path d="M0 0H40V40H0V0Z" fill="white" fill-opacity="0.01"/>
<path d="M3.33317 11.6667L2.58781 10.176C2.02317 10.4583 1.6665 11.0355 1.6665 11.6667H3.33317ZM19.9998 3.33341L20.7452 1.8427C20.276 1.6081 19.7237 1.6081 19.2545 1.8427L19.9998 3.33341ZM36.6665 11.6667H38.3332C38.3332 11.0355 37.9765 10.4583 37.4118 10.176L36.6665 11.6667ZM36.6665 28.3334L37.4118 29.8242C37.9765 29.5418 38.3332 28.9647 38.3332 28.3334H36.6665ZM19.9998 36.6667L19.2545 38.1575C19.7237 38.3921 20.276 38.3921 20.7452 38.1575L19.9998 36.6667ZM3.33317 28.3334H1.6665C1.6665 28.9647 2.02317 29.5418 2.58781 29.8242L3.33317 28.3334ZM4.07853 13.1575L20.7452 4.82412L19.2545 1.8427L2.58781 10.176L4.07853 13.1575ZM34.9998 11.6667V28.3334H38.3332V11.6667H34.9998ZM35.9212 26.8427L19.2545 35.176L20.7452 38.1575L37.4118 29.8242L35.9212 26.8427ZM20.7452 35.176L4.07853 26.8427L2.58781 29.8242L19.2545 38.1575L20.7452 35.176ZM4.99984 28.3334V11.6667H1.6665V28.3334H4.99984ZM37.4118 10.176L20.7452 1.8427L19.2545 4.82412L35.9212 13.1575L37.4118 10.176Z" fill="#D2D2D2"/>
<path d="M3.3335 11.6667L20.0002 20.0001" stroke="#D2D2D2" stroke-width="2" stroke-linecap="round" stroke-linejoin="round"/>
<path d="M20 36.6667V20" stroke="#D2D2D2" stroke-width="2" stroke-linecap="round" stroke-linejoin="round"/>
<path d="M36.6667 11.6667L20 20.0001" stroke="#D2D2D2" stroke-width="2" stroke-linecap="round" stroke-linejoin="round"/>
<path d="M29.0785 8.99079C29.9019 8.57912 30.2355 7.57798 29.824 6.75468C29.4123 5.93139 28.4111 5.59768 27.5879 6.00933L29.0785 8.99079ZM10.9212 14.3426C10.0979 14.7543 9.76421 15.7555 10.1758 16.5787C10.5875 17.402 11.5886 17.7357 12.4119 17.3241L10.9212 14.3426ZM27.5879 6.00933L10.9212 14.3426L12.4119 17.3241L29.0785 8.99079L27.5879 6.00933Z" fill="#D2D2D2"/>
</svg>
