<svg width="40" height="40" viewBox="0 0 40 40" fill="none" xmlns="http://www.w3.org/2000/svg">
<path d="M0 0H40V40H0V0Z" fill="white" fill-opacity="0.01"/>
<path d="M3.33301 10H36.6663V16.6667L35.5009 17.3659C33.6536 18.4743 31.3458 18.4743 29.4984 17.3659L28.333 16.6667L27.1676 17.3659C25.3203 18.4743 23.0124 18.4743 21.1651 17.3659L19.9997 16.6667L18.8343 17.3659C16.9869 18.4743 14.6791 18.4743 12.8318 17.3659L11.6663 16.6667L10.5009 17.3659C8.65359 18.4743 6.34577 18.4743 4.49845 17.3659L3.33301 16.6667V10Z" fill="#2F88FF" stroke="#D2D2D2" stroke-width="2" stroke-linecap="round" stroke-linejoin="round"/>
<path d="M6.6665 18.7408V36.6667H33.3332V18.3334" stroke="#D2D2D2" stroke-width="2" stroke-linecap="round" stroke-linejoin="round"/>
<path d="M6.6665 9.85187V3.33337H33.3332V10" stroke="#D2D2D2" stroke-width="2" stroke-linecap="round" stroke-linejoin="round"/>
<path d="M15.833 26.6667H24.1663V36.6667H15.833V26.6667Z" fill="#2F88FF" stroke="#D2D2D2" stroke-width="2" stroke-linecap="round" stroke-linejoin="round"/>
</svg>
